<svg width="417" height="312" viewBox="0 0 417 312" fill="none" xmlns="http://www.w3.org/2000/svg">
<path d="M137.397 311.25C109.403 311.25 85.1839 304.74 64.7412 291.719C44.2985 278.568 28.4782 260.404 17.2803 237.227C6.21257 213.919 0.678713 187.096 0.678713 156.758C0.678713 126.549 6.21257 99.7266 17.2803 76.289C28.4782 52.7213 43.9079 34.2969 63.5693 21.0156C83.361 7.60416 106.213 0.898435 132.124 0.898435C148.4 0.898435 164.09 3.89322 179.194 9.88279C194.299 15.7422 207.84 24.7916 219.819 37.0312C231.929 49.1406 241.499 64.4401 248.53 82.9297C255.562 101.289 259.077 123.034 259.077 148.164V165.352H24.7022V134.687H223.53C223.53 115.417 219.624 98.099 211.812 82.7344C204.129 67.2396 193.387 55 179.585 46.0156C165.913 37.0312 150.093 32.5391 132.124 32.5391C113.114 32.5391 96.3818 37.6172 81.9287 47.7734C67.4756 57.9297 56.1475 71.3411 47.9443 88.0078C39.8714 104.674 35.7699 122.904 35.6396 142.695V161.055C35.6396 184.883 39.7412 205.716 47.9443 223.555C56.2777 241.263 68.0615 255 83.2959 264.766C98.5303 274.531 116.564 279.414 137.397 279.414C151.59 279.414 164.025 277.201 174.702 272.773C185.509 268.346 194.559 262.422 201.851 255C209.272 247.448 214.871 239.18 218.647 230.195L251.655 240.937C247.098 253.568 239.611 265.221 229.194 275.898C218.908 286.576 206.017 295.169 190.522 301.68C175.158 308.06 157.45 311.25 137.397 311.25Z" fill="#FBA90A"/>
<path d="M166.875 212.282V177.373H169.58V182.646H169.852C170.519 180.888 171.67 179.494 173.307 178.464C174.943 177.434 176.913 176.919 179.216 176.919C181.746 176.919 183.784 177.525 185.33 178.737C186.89 179.949 188.011 181.593 188.693 183.669H188.943C189.625 181.623 190.845 179.987 192.602 178.76C194.375 177.532 196.557 176.919 199.148 176.919C202.527 176.919 205.102 177.987 206.875 180.123C208.663 182.244 209.557 185.153 209.557 188.85V212.282H206.784V188.85C206.784 185.941 206.087 183.653 204.693 181.987C203.299 180.32 201.254 179.487 198.557 179.487C195.678 179.487 193.466 180.388 191.92 182.191C190.375 183.994 189.602 186.29 189.602 189.078V212.282H186.83V188.669C186.83 185.957 186.148 183.752 184.784 182.055C183.42 180.343 181.375 179.487 178.648 179.487C176.799 179.487 175.201 179.911 173.852 180.76C172.519 181.608 171.481 182.775 170.739 184.26C170.011 185.744 169.648 187.449 169.648 189.373V212.282H166.875ZM234.676 213.01C231.525 213.01 228.782 212.229 226.449 210.669C224.116 209.108 222.313 206.972 221.04 204.26C219.767 201.547 219.131 198.457 219.131 194.987C219.131 191.502 219.767 188.396 221.04 185.669C222.328 182.941 224.093 180.79 226.335 179.214C228.578 177.638 231.138 176.85 234.017 176.85C235.972 176.85 237.82 177.244 239.562 178.032C241.32 178.805 242.866 179.926 244.199 181.396C245.547 182.866 246.6 184.638 247.358 186.714C248.131 188.79 248.517 191.123 248.517 193.714V195.441H220.881V192.919H245.744C245.744 190.388 245.229 188.108 244.199 186.078C243.169 184.047 241.767 182.434 239.994 181.237C238.222 180.04 236.229 179.441 234.017 179.441C231.699 179.441 229.631 180.093 227.812 181.396C226.009 182.684 224.578 184.426 223.517 186.623C222.472 188.82 221.926 191.275 221.881 193.987V195.123C221.881 198.032 222.388 200.646 223.403 202.964C224.434 205.267 225.903 207.093 227.812 208.441C229.722 209.775 232.009 210.441 234.676 210.441C236.585 210.441 238.214 210.123 239.562 209.487C240.926 208.835 242.04 208.047 242.903 207.123C243.767 206.199 244.419 205.305 244.858 204.441L247.381 205.464C246.85 206.631 246.025 207.797 244.903 208.964C243.797 210.116 242.388 211.078 240.676 211.85C238.979 212.623 236.979 213.01 234.676 213.01ZM258.062 212.282V177.373H260.767V182.828H261.017C261.775 181.04 263.055 179.608 264.858 178.532C266.661 177.441 268.714 176.896 271.017 176.896C271.259 176.896 271.502 176.896 271.744 176.896C271.987 176.896 272.214 176.903 272.426 176.919V179.714C272.244 179.699 272.025 179.676 271.767 179.646C271.525 179.6 271.222 179.578 270.858 179.578C268.919 179.578 267.191 179.994 265.676 180.828C264.176 181.661 262.994 182.813 262.131 184.282C261.267 185.737 260.835 187.403 260.835 189.282V212.282H258.062ZM291.903 213.01C288.934 213.01 286.32 212.229 284.062 210.669C281.805 209.093 280.04 206.941 278.767 204.214C277.509 201.487 276.881 198.396 276.881 194.941C276.881 191.487 277.517 188.396 278.79 185.669C280.063 182.941 281.828 180.79 284.085 179.214C286.343 177.638 288.941 176.85 291.881 176.85C294.093 176.85 296.108 177.305 297.926 178.214C299.759 179.123 301.275 180.388 302.472 182.01C303.684 183.631 304.456 185.51 304.79 187.646H301.972C301.517 185.282 300.381 183.328 298.562 181.782C296.759 180.222 294.54 179.441 291.903 179.441C289.54 179.441 287.434 180.108 285.585 181.441C283.737 182.76 282.282 184.585 281.222 186.919C280.161 189.237 279.631 191.896 279.631 194.896C279.631 197.85 280.146 200.502 281.176 202.85C282.206 205.184 283.646 207.032 285.494 208.396C287.343 209.76 289.479 210.441 291.903 210.441C293.616 210.441 295.176 210.1 296.585 209.419C298.009 208.737 299.199 207.767 300.153 206.51C301.108 205.252 301.737 203.782 302.04 202.1H304.858C304.525 204.252 303.767 206.146 302.585 207.782C301.403 209.419 299.896 210.699 298.062 211.623C296.229 212.547 294.176 213.01 291.903 213.01ZM323.562 213.032C321.547 213.032 319.699 212.631 318.017 211.828C316.35 211.025 315.009 209.85 313.994 208.305C312.994 206.76 312.494 204.881 312.494 202.669C312.494 201.214 312.752 199.934 313.267 198.828C313.782 197.722 314.578 196.767 315.653 195.964C316.729 195.161 318.108 194.502 319.79 193.987C321.472 193.457 323.479 193.047 325.812 192.76C327.585 192.547 329.169 192.343 330.562 192.146C331.956 191.934 333.047 191.608 333.835 191.169C334.638 190.729 335.04 190.063 335.04 189.169V187.714C335.04 185.169 334.237 183.146 332.631 181.646C331.025 180.146 328.813 179.396 325.994 179.396C323.494 179.396 321.388 179.949 319.676 181.055C317.979 182.146 316.79 183.555 316.108 185.282L313.494 184.305C314.161 182.638 315.123 181.252 316.381 180.146C317.653 179.04 319.108 178.214 320.744 177.669C322.396 177.123 324.123 176.85 325.926 176.85C327.487 176.85 328.972 177.07 330.381 177.51C331.805 177.949 333.07 178.616 334.176 179.51C335.297 180.403 336.184 181.547 336.835 182.941C337.487 184.32 337.812 185.972 337.812 187.896V212.282H335.04V205.987H334.835C334.229 207.29 333.396 208.479 332.335 209.555C331.29 210.616 330.025 211.464 328.54 212.1C327.07 212.722 325.411 213.032 323.562 213.032ZM323.835 210.464C326.017 210.464 327.949 209.934 329.631 208.873C331.328 207.797 332.653 206.328 333.608 204.464C334.563 202.6 335.04 200.487 335.04 198.123V192.987C334.691 193.29 334.184 193.563 333.517 193.805C332.866 194.032 332.123 194.237 331.29 194.419C330.472 194.585 329.608 194.737 328.699 194.873C327.805 194.994 326.934 195.108 326.085 195.214C323.54 195.517 321.464 195.987 319.858 196.623C318.267 197.244 317.1 198.063 316.358 199.078C315.631 200.093 315.267 201.32 315.267 202.76C315.267 205.138 316.085 207.017 317.722 208.396C319.358 209.775 321.396 210.464 323.835 210.464ZM361.415 213.01C358.612 213.01 356.165 212.237 354.074 210.691C351.983 209.146 350.362 207.017 349.21 204.305C348.074 201.578 347.506 198.449 347.506 194.919C347.506 191.419 348.081 188.313 349.233 185.6C350.4 182.873 352.028 180.737 354.119 179.191C356.21 177.631 358.65 176.85 361.438 176.85C363.438 176.85 365.172 177.237 366.642 178.01C368.127 178.767 369.369 179.775 370.369 181.032C371.384 182.29 372.157 183.669 372.688 185.169H372.96V165.737H375.71V212.282H373.028V204.669H372.688C372.127 206.169 371.347 207.555 370.347 208.828C369.347 210.085 368.104 211.1 366.619 211.873C365.134 212.631 363.4 213.01 361.415 213.01ZM361.665 210.441C364.028 210.441 366.051 209.767 367.733 208.419C369.43 207.055 370.725 205.207 371.619 202.873C372.528 200.525 372.983 197.866 372.983 194.896C372.983 191.926 372.528 189.282 371.619 186.964C370.725 184.631 369.43 182.797 367.733 181.464C366.051 180.116 364.028 179.441 361.665 179.441C359.271 179.441 357.218 180.123 355.506 181.487C353.809 182.835 352.506 184.676 351.597 187.01C350.703 189.343 350.256 191.972 350.256 194.896C350.256 197.82 350.703 200.457 351.597 202.805C352.506 205.153 353.809 207.017 355.506 208.396C357.218 209.76 359.271 210.441 361.665 210.441ZM401.165 213.01C398.286 213.01 395.725 212.237 393.483 210.691C391.241 209.131 389.475 206.987 388.188 204.26C386.9 201.532 386.256 198.426 386.256 194.941C386.256 191.441 386.9 188.335 388.188 185.623C389.475 182.896 391.241 180.752 393.483 179.191C395.725 177.631 398.286 176.85 401.165 176.85C404.044 176.85 406.604 177.631 408.847 179.191C411.089 180.752 412.854 182.896 414.142 185.623C415.43 188.35 416.074 191.457 416.074 194.941C416.074 198.426 415.43 201.532 414.142 204.26C412.854 206.987 411.089 209.131 408.847 210.691C406.604 212.237 404.044 213.01 401.165 213.01ZM401.165 210.441C403.604 210.441 405.733 209.752 407.551 208.373C409.384 206.994 410.801 205.131 411.801 202.782C412.816 200.434 413.324 197.82 413.324 194.941C413.324 192.063 412.816 189.457 411.801 187.123C410.786 184.775 409.369 182.911 407.551 181.532C405.733 180.138 403.604 179.441 401.165 179.441C398.725 179.441 396.597 180.138 394.778 181.532C392.96 182.911 391.544 184.775 390.528 187.123C389.513 189.457 389.006 192.063 389.006 194.941C389.006 197.82 389.506 200.434 390.506 202.782C391.521 205.131 392.938 206.994 394.756 208.373C396.589 209.752 398.725 210.441 401.165 210.441Z" fill="#FFFCFC"/>
</svg>
